<?xml version="1.0" encoding="UTF-8"?><svg id="Logo" xmlns="http://www.w3.org/2000/svg" viewBox="0 0 1935.02 878.73"><defs><style>.cls-1{fill:none;}</style></defs><polygon points="1282.26 0 778.86 0 778.86 878.73 883.06 878.73 883.06 485.8 883.06 392.92 883.06 92.89 1282.26 92.89 1282.26 156.5 1375.16 156.5 1375.16 92.89 1555.91 92.89 1555.91 785.85 1555.91 878.73 1658.93 878.73 1660.1 785.85 1660.1 92.89 1842.14 92.89 1842.14 156.5 1935.02 156.5 1935.02 0 1282.26 0"/><path class="cls-1" d="m1058.87,291.99c-5.33,0-9.66,4.31-9.66,9.65s4.32,9.63,9.66,9.63,9.65-4.31,9.65-9.63-4.32-9.65-9.65-9.65Z"/><path class="cls-1" d="m1128.95,299.71c-7.47,0-13.52,6.05-13.52,13.53s6.06,13.52,13.52,13.52,13.53-6.06,13.52-13.52c0-7.48-6.05-13.53-13.52-13.53Z"/><path d="m1206.74,376.08c-8.46,0-15.62,5.37-18.38,12.89h-113.45v.48l-.2-.2-24.59,24.58h-383.94v.21l-249.35,249.36-143.2-143.21-4.79,14.35,141.35,141.34,6.63,6.65,255.15-255.16h383.62v-.12l.12.12,24.9-24.88h107.77c2.76,7.5,9.92,12.89,18.38,12.89,10.85,0,19.64-8.79,19.64-19.65s-8.8-19.63-19.64-19.63Zm0,32.36c-7.02,0-12.73-5.7-12.73-12.73s5.7-12.72,12.73-12.72,12.72,5.7,12.72,12.72-5.7,12.73-12.72,12.73Z"/><path d="m1093.43,460.94c-3.78,0-7.28,1.12-10.27,2.97l-27.46-27.46-.12.12v-.12h-379.64v.19l-.19-.19-258.81,258.81-151.26-151.27-4.79,14.34,156.1,156.1,9.53-9.59-.02-.02,254.83-254.83h368.77l24.59,24.59.18-.18c-.65,1.96-1.09,4.01-1.09,6.19,0,10.85,8.79,19.65,19.65,19.65s19.64-8.8,19.64-19.65-8.79-19.65-19.64-19.65Zm0,29.3c-5.32,0-9.64-4.33-9.64-9.65s4.32-9.63,9.64-9.63,9.65,4.31,9.65,9.63-4.32,9.65-9.65,9.65Z"/><path d="m1128.95,293.59c-10.85,0-19.64,8.8-19.64,19.65,0,2.94.69,5.71,1.86,8.21l-70.55,70.56h-383.9v.1l-.1-.1-239.55,239.56-135.42-135.43-4.79,14.34,140.13,140.14,5.4-5.43.08.08,239.72-239.73h383.93v-.07l.07.07,74.53-74.52c2.51,1.16,5.28,1.87,8.23,1.87,10.84-.02,19.64-8.81,19.64-19.65,0-10.85-8.8-19.65-19.64-19.65Zm0,33.16c-7.47,0-13.52-6.06-13.52-13.52s6.06-13.53,13.52-13.53,13.53,6.05,13.52,13.53c0,7.46-6.05,13.52-13.52,13.52Z"/><path d="m1058.87,282c-10.85,0-19.65,8.8-19.65,19.65,0,8.45,5.37,15.66,12.88,18.41v29.16l-20.65,20.65h-384.12v.18l-.18-.18-230.2,230.2-127.46-127.46-4.79,14.34,122.68,122.68-.03.03,9.54,9.57.04-.05.05.05,9.53-9.59-.02-.02,226.22-226.23h384.31v-.03l.02.02,28.57-28.58-.03-.03h.03v-34.73c7.51-2.76,12.88-9.96,12.88-18.41,0-10.85-8.8-19.65-19.64-19.65Zm0,29.28c-5.33,0-9.66-4.31-9.66-9.63s4.33-9.65,9.66-9.65,9.65,4.31,9.65,9.65-4.32,9.63-9.65,9.63Z"/><polygon points="416.77 0 293.75 0 0 878.73 104.19 878.73 347.73 131.81 362.78 131.81 603.81 878.73 713.03 878.73 416.77 0"/></svg>