<?xml version="1.0" encoding="UTF-8"?><svg id="Layer_1" xmlns="http://www.w3.org/2000/svg" viewBox="0 0 1080 1080"><path d="m722.15,777.04c-3.6-1.1-5.83-3.72-7.95-6.66-7.03-9.74-14.26-19.33-21.24-29.1-1.05-1.47-1.75-3.58-1.72-5.38.42-24.89.31-49.77-1.66-74.61-3.03-38.02-7.31-75.86-15.65-113.14-3.5-15.66-9.91-29.92-21.64-41.3-7.58-7.35-16.45-12.47-26.82-14.81-.84-.19-1.71-.32-2.57-.31-1.37.02-1.97.51-1.77,2.16,3.61,29-19.06,54.68-48.25,54.73-4.13,0-8.25.05-12.38-.03-1.41-.03-1.88.39-1.85,1.82.07,4.92-.02,9.84.05,14.76.02,1.41-.42,1.87-1.85,1.87-10.64-.05-21.28-.06-31.92,0-1.64.01-1.89-.67-1.87-2.06.06-4.77-.04-9.55.05-14.33.03-1.59-.41-2.05-2.06-2.09-7.15-.16-14.4.19-21.42-.91-24.58-3.85-42.62-28.23-39.63-52.87.3-2.45-.5-3.35-3.01-2.64-3.74,1.06-7.52,2.19-11.01,3.86-15.7,7.52-25.66,20.28-32.21,36.03-4.48,10.77-6.5,22.18-8.63,33.54-6.21,33.16-9.9,66.64-12.33,100.27-1.68,23.19-1.85,46.39-1.36,69.62.04,1.99-.71,4.34-1.87,5.96-7.31,10.25-14.74,20.42-22.37,30.42-1.62,2.12-4.24,3.47-6.4,5.18h-8.25c-.56-.3-1.1-.63-1.68-.88-3.37-1.45-5.36-4.34-5.24-7.99.61-19.45,1.18-38.9,1.92-58.34.71-18.79,1.35-37.59,2.47-56.36,1.32-22.08,2.55-44.2,4.95-66.18,1.56-14.32,5.08-28.44,7.82-42.63,2.8-14.48,6.08-28.89,6.32-43.72.06-3.74-.26-7.52-.79-11.22-.71-4.98-2.63-9.46-6.67-13.07,2.5.32,5,.63,7.49.97,2.44.33,4.89.61,7.29,1.1,1.69.34,2.42-.29,3.09-1.77,13.82-30.3,14.12-60.38-1.38-90.22-.16-.31-.31-.64-.63-1.32,3.04-.53,5.9-1.05,8.77-1.52,25.75-4.26,51.3-9.48,76.66-15.7,28.48-6.98,57.52-9.09,86.79-8.37,27.52.67,54.44,4.99,81.22,11.47,22.95,5.55,46.35,9.21,69.55,13.71.54.11,1.08.25,1.79.41-.35.74-.6,1.32-.88,1.88-15.3,29.86-14.8,59.87-.92,90.04.68,1.49,1.61,1.52,2.92,1.35,5.67-.71,11.34-1.36,17.02-2.03.21-.02.43.02.81.05-8.45,7.9-8.13,18.14-7.55,28.27.95,16.73,4.7,33.05,8.24,49.36,4.76,21.96,7.93,44.1,8.94,66.55,1.76,39.52,3.53,79.04,5.24,118.57.41,9.47.62,18.94.92,28.41.13,3.89-1.78,6.87-5.35,8.35-.59.24-1.14.56-1.72.84h-7.82Zm-16.35-159.41c.08-.62.16-1.23.23-1.85-.08,0-.15-.01-.23-.02v1.86c.06.28.15.56.16.85.88,19.21,1.86,38.41,2.62,57.62.79,20.01,1.47,40.02,1.96,60.03.09,3.63,2.69,5.17,4.38,7.58.22-6.21.49-12.34.18-18.45-1.03-19.92-1.96-39.85-3.52-59.73-1.22-15.55-3.32-31.03-5.06-46.54-.05-.47-.47-.91-.71-1.37Zm-328.95-1.17c-5.7,42.21-9.78,84.54-8.95,127.29,1.66-1.98,3.95-4.03,4.07-6.2.75-14,.94-28.03,1.47-42.04.76-20.15,1.65-40.3,2.51-60.45.26-6.2.6-12.41.91-18.61Zm46.65-204.57c-.23-2.3-.3-4.4-.66-6.46-.79-4.55-2.28-8.84-5.73-12.11-.52-.5-1.72-.28-2.6-.4.1.88-.02,1.87.34,2.62,1.32,2.77,3.2,5.33,4.13,8.2,1.65,5.11,1.05,10.42.42,15.68-.09.75.72,1.6,1.12,2.41.68-.66,1.81-1.22,1.96-1.99.53-2.68.72-5.43,1.01-7.96Zm225.3.69c.2,1.76.39,4.58.89,7.34.13.73,1.2,1.3,1.83,1.95.45-.84,1.28-1.67,1.27-2.5-.03-3.46-.58-6.92-.45-10.37.17-4.77,1.42-9.29,4.66-13.01.82-.94,1.98-1.85.64-3.08-1.31-1.2-2.31-.07-3.07.87-1.03,1.29-2.02,2.65-2.79,4.11-2.25,4.26-2.84,8.9-2.99,14.7Zm7.15-.99c.14.05.28.1.42.15.28,2.58.43,5.18.93,7.72.17.89,1.22,2.28,1.86,2.27,1.73-.02,1.4-1.55,1.33-2.79-.18-3.67-.56-7.35-.38-11,.22-4.47,1.6-8.65,4.67-12.09.83-.92,1.73-1.98.45-2.86-.56-.38-2.3.05-2.81.67-1.44,1.77-2.96,3.69-3.63,5.81-1.26,3.94-1.94,8.07-2.86,12.11Zm-216.72.27c-.08,0-.17-.02-.25-.02,0-1.01.07-2.03-.01-3.03-.5-5.71-1.82-11.15-6.03-15.37-.53-.54-1.82-.33-2.75-.47.13.88.06,1.86.43,2.63,1.3,2.7,3.14,5.19,4.05,8,1.67,5.18,1.1,10.55.44,15.89-.09.73.78,1.58,1.2,2.37.65-.61,1.73-1.14,1.87-1.86.52-2.68.73-5.42,1.06-8.14Zm-8.13.47c-.13-2.02-.15-3.76-.37-5.48-.66-5.03-2.11-9.78-5.84-13.45-.54-.53-1.82-.31-2.76-.43.13.88.07,1.85.44,2.62,1.33,2.76,3.23,5.33,4.14,8.21,1.59,5.04,1.1,10.28.38,15.48-.11.79.76,1.71,1.18,2.56.68-.68,1.79-1.27,1.95-2.05.5-2.54.64-5.15.89-7.47Zm209.47-1.74c.4,3.79.54,6.47,1.03,9.08.15.81,1.21,2.06,1.86,2.06,1.54.02,1.5-1.37,1.37-2.59-.25-2.29-.64-4.59-.66-6.89-.05-5.64.79-11.09,4.33-15.77.83-1.09,2.89-2.19.91-3.66-1.75-1.3-2.77.67-3.54,1.78-1.26,1.82-2.56,3.77-3.16,5.86-1.05,3.64-1.58,7.43-2.13,10.13Z"/><path d="m.81,358.51c.98-2.66,3.18-3.34,5.71-3.9,29.2-6.43,58.76-9.72,88.63-10.54,31.39-.87,62.63.81,93.71,5.26.78.11,1.58.16,2.71.28,0-2.29-.09-4.5.06-6.7.04-.59.75-1.16,1.23-1.67.46-.49,1.13-.82,1.53-1.35,4.48-5.93,12.83-5.95,17.35-.09.5.64,1.45.92,2.12,1.45.41.33.96.8.99,1.23.12,1.66.14,3.33.02,4.99-.12,1.62.32,2.13,2.05,1.91,8.82-1.12,17.65-2.29,26.5-3.14,22.06-2.11,44.18-2.86,66.34-2.25,17.73.48,35.43,1.55,52.98,4.19,13.07,1.96,26.05,4.59,39.06,6.93,2.09.37,3.2,1.63,3.18,3.74-.02,2.18-1.32,3.28-3.39,3.51-14.37,1.6-28.71,3.73-43.13,4.64-17.46,1.11-34.99,1.58-52.49,1.61-29.7.06-59.28-2.13-88.71-6.12-1.99-.27-2.55.24-2.4,2.19.16,2.16.13,4.35-.03,6.5-.04.53-.92,1.43-1.42,1.44-6.8.1-13.61.1-20.41,0-.49,0-1.34-.95-1.38-1.5-.16-2.3-.16-4.63-.04-6.94.09-1.6-.49-1.93-1.99-1.75-9.19,1.09-18.37,2.45-27.6,3.06-18.98,1.26-37.98,2.41-56.99,3.04-21.06.7-42.12-.07-63.11-1.9-12.38-1.08-24.71-2.85-37.07-4.22-2.26-.25-3.16-1.76-4.04-3.46v-.43Z"/><path d="m1080,359.81c-.72,1.68-2.02,2.36-3.83,2.64-26.44,4.08-53.05,5.76-79.77,6.17-24.98.38-49.92-.56-74.79-2.83-9.72-.89-19.41-2.09-29.1-3.27-1.95-.24-2.78.04-2.6,2.21.18,2.08,0,4.19.05,6.29.03,1.15-.3,1.7-1.58,1.69-6.73-.04-13.46-.04-20.19,0-1.28,0-1.61-.54-1.58-1.69.05-2.24-.09-4.49.04-6.73.11-1.76-.57-2.03-2.15-1.85-10.7,1.22-21.39,2.73-32.14,3.46-17.46,1.18-34.95,2.13-52.44,2.64-22.73.67-45.44-.23-68.08-2.32-10.72-.99-21.39-2.55-32.09-3.85-2.08-.25-3.37-1.35-3.39-3.51-.02-2.09,1.09-3.3,3.17-3.76,18.01-4.06,36.2-6.95,54.57-8.76,24.31-2.4,48.66-3.04,73.06-2.09,18.95.74,37.83,2.26,56.59,5.11,2.18.33,3.28.01,2.89-2.47-.14-.92-.04-1.88-.02-2.82.04-1.34-.55-3.02,1.85-3.02.36,0,.72-.82,1.07-1.28,4.38-5.79,12.81-5.79,17.18,0,.3.4.58,1.15.9,1.17,3.67.22,2.21,2.99,2.29,4.78.17,3.84.05,3.85,3.78,3.34,33.34-4.58,66.83-6.2,100.45-4.75,27.65,1.2,55.05,4.48,82.07,10.66,1.72.39,3.12.96,3.81,2.69v2.17Z"/><path d="m878.25,375.89c11.07,0,22.15.04,33.22-.04,1.66-.01,2.06.49,2.05,2.08-.06,10.64.02,21.27-.08,31.91-.02,1.91.58,2.44,2.42,2.57,4.9.35,9.8.84,14.69,1.42,8.55,1.02,15.01,8.63,14.97,17.48-.04,8.96-6.67,16.38-15.29,17.47-23.25,2.93-46.48,5.96-69.72,8.97-20.37,2.64-40.73,5.33-61.1,8-5.52.72-11.05,1.42-16.56,2.23-1.33.2-2.08-.1-2.81-1.27-5.96-9.67-10.29-19.9-11.15-31.37-1.06-13.97,3.06-26.41,11.32-37.56.42-.57,1.6-.96,2.35-.87,19.1,2.32,38.19,4.7,57.27,7.14,2.03.26,2.91.05,2.85-2.41-.18-7.59.06-15.2-.14-22.79-.07-2.59.75-3.04,3.13-3.02,10.85.13,21.71.06,32.57.06Z"/><path d="m203.12,375.89c11,0,22,.05,33-.05,1.97-.02,2.39.57,2.37,2.43-.1,7.88,0,15.77-.08,23.65-.02,1.83.41,2.34,2.31,2.1,18.93-2.43,37.88-4.79,56.83-7.06.79-.09,2.01.64,2.52,1.36,12.43,17.46,14.37,36.17,6.19,55.89-1.74,4.19-4.19,8.07-6.22,12.14-.74,1.49-1.75,1.78-3.31,1.57-13.61-1.85-27.23-3.66-40.85-5.45-19.36-2.54-38.72-5.07-58.08-7.58-16.21-2.1-32.43-4.09-48.63-6.26-8.22-1.1-14.59-8.98-14.48-17.52.11-8.66,6.51-16.2,14.8-17.23,5.24-.65,10.5-1.11,15.76-1.54,1.73-.14,2.44-.62,2.42-2.58-.12-10.34,0-20.69-.1-31.03-.02-2.17.41-2.92,2.78-2.89,10.93.14,21.85.06,32.78.06Z"/><path d="m749.4,392.39c-13.37,26.84-12.33,53.33.66,80-4.26.57-8.31,1.13-12.37,1.59-.41.05-1.05-.45-1.31-.86-16.19-25.63-18.05-53.85.25-79.13,1.68-2.32,3.33-3.44,6.26-2.58,1.98.58,4.12.64,6.52.98Z"/><path d="m330.51,392.46c3.17-.47,6.14-.98,9.14-1.3.63-.07,1.56.39,1.97.9,10.13,12.77,15.35,27.21,14.6,43.61-.62,13.5-5.45,25.62-12.44,36.99-.35.58-1.18,1.31-1.72,1.25-4.01-.42-7.99-1.02-12.22-1.59,12.98-26.62,14-53.12.66-79.86Z"/></svg>