<?xml version="1.0" encoding="UTF-8"?><svg id="Layer_1" xmlns="http://www.w3.org/2000/svg" viewBox="0 0 863.04 526.77"><path d="m85.47,0C316.67,0,547.86,0,779.06,0c.89.18,1.78.44,2.68.52,24.34,2.19,45.65,11.13,62.52,29.09,11.96,12.72,18.86,27.3,18.78,45.68-.43,106.12-.2,212.24-.21,318.35,0,19.56,0,39.13-.09,58.69-.06,13.26-4.74,25.12-12.37,35.64-19.25,26.55-46.34,38.76-78.33,38.78-226.56.11-453.12-.24-679.68-.38-13.07,0-25.7-2.12-37.81-6.95-21.94-8.75-39.23-22.73-48.46-45.03-2.74-6.63-4.1-13.83-6.09-20.77,0-45.48,0-90.97,0-136.45.12-1.52.35-3.03.35-4.55.06-62.23.11-124.46.13-186.69,0-3.25-.31-6.51-.48-9.76C0,101.83,0,87.49,0,73.14c.35-1.16.7-2.33,1.06-3.49,2.23-7.18,3.59-14.79,6.87-21.45C18.37,27.08,35.82,13.55,57.82,6.13,66.71,3.12,76.23,1.99,85.47,0Zm6.35,41.78c1.41,1.23,2.23,1.98,3.08,2.7,58.24,49.71,116.5,99.4,174.73,149.12,50.77,43.34,101.52,86.71,152.3,130.04,7.25,6.19,15.91,6.18,23.17,0,23.67-20.14,47.3-40.32,70.93-60.51,79.73-68.16,159.46-136.32,239.18-204.49,6.39-5.46,12.77-10.92,19.72-16.86H91.81Zm634.34,445.42c-1.79-1.18-2.43-1.52-2.96-1.98-10.89-9.28-21.77-18.57-32.64-27.87-55.39-47.36-110.77-94.74-166.24-142.01-.76-.64-3.08-.55-3.89.13-24.95,21.15-49.8,42.42-74.67,63.66-7.89,6.74-16.59,6.71-24.4,0-25.65-22.07-51.28-44.16-77.02-66.13-.8-.68-3.14-.75-3.9-.11-67.22,57.29-134.36,114.67-201.53,172.02-.72.61-1.83.76-2.76,1.12.4.39.81.78,1.21,1.17h588.8Zm-171.02-201.56c17.99,15.4,35.78,30.6,53.55,45.83,57.13,48.96,114.27,97.91,171.38,146.89,8.97,7.69,11.24,7.92,21.34,1.39,1.37-.88,2.7-1.85,3.92-2.94,9.79-8.76,11.81-20.45,11.81-32.67.06-126.21.04-252.41.04-378.62,0-1.05,0-2.11,0-3.84-87.66,74.93-174.69,149.31-262.04,223.97ZM51.86,63.29v4.64c0,127.74,0,255.47.01,383.21,0,2.05.07,4.1.26,6.14,1.2,12.75,6.69,22.44,19.52,26.61,1.25.4,3.27.08,4.28-.72,5.27-4.21,10.34-8.68,15.47-13.06,62.78-53.67,125.55-107.33,188.33-161,9.85-8.42,19.7-16.86,29.84-25.53C223.71,210.18,138.12,137.01,51.86,63.29Z"/></svg>