<?xml version="1.0" encoding="utf-8"?>
<!-- Generator: Adobe Illustrator 27.4.1, SVG Export Plug-In . SVG Version: 6.00 Build 0)  -->
<svg version="1.1" id="Layer_1" xmlns="http://www.w3.org/2000/svg" xmlns:xlink="http://www.w3.org/1999/xlink" x="0px" y="0px"
	 viewBox="0 0 32 32" style="enable-background:new 0 0 32 32;" xml:space="preserve">
<path d="M16,0c8.8,0,16,7.2,16,16c0,6.9-4.4,13-10.9,15.2c-0.8,0.2-1.1-0.3-1.1-0.8c0-0.5,0-2.3,0-4.4c0-1.5-0.5-2.5-1.1-3
	c3.6-0.4,7.3-1.8,7.3-7.9c0-1.8-0.6-3.2-1.6-4.3c0.2-0.4,0.7-2-0.2-4.2c0,0-1.3-0.4-4.4,1.6c-1.3-0.4-2.6-0.5-4-0.5s-2.7,0.2-4,0.5
	C9,6.2,7.6,6.6,7.6,6.6c-0.9,2.2-0.3,3.8-0.2,4.2c-1,1.1-1.6,2.6-1.6,4.3c0,6.1,3.7,7.5,7.3,7.9c-0.5,0.4-0.9,1.1-1,2.1
	c-0.9,0.4-3.2,1.1-4.7-1.3c-0.3-0.5-1.2-1.7-2.5-1.6c-1.3,0-0.5,0.8,0,1.1c0.7,0.4,1.5,1.8,1.6,2.3C7,26.5,8,28.2,12,27.4
	c0,1.3,0,2.6,0,3c0,0.4-0.3,0.9-1.1,0.8C4.4,29,0,22.9,0,16C0,7.2,7.2,0,16,0z"/>
</svg>
