<?xml version="1.0" encoding="UTF-8"?><svg id="Layer_1" xmlns="http://www.w3.org/2000/svg" viewBox="0 0 828.49 828.47"><defs><style>.cls-1{fill:#231f20;}</style></defs><path class="cls-1" d="m706.11,706.09h-124.55v-216.11c0-63.76-27.1-83.42-62.07-83.42-36.95,0-73.19,27.81-73.19,85.01v214.52h-124.55v-395.67h119.78v54.82h1.59c12.05-24.36,54.12-65.94,118.39-65.94,69.5,0,144.6,41.23,144.6,162.08v244.71h0ZM184.66,255.28c-39.66,0-71.81-30.18-71.81-71.49s32.15-71.53,71.81-71.53,71.81,30.22,71.81,71.53-32.15,71.49-71.81,71.49h0Zm62.28,450.5h-124.55v-395.68h124.55v395.68h0ZM767.34,0H61.16C27.38,0,0,27.38,0,61.16v706.16c0,33.78,27.38,61.16,61.16,61.16h706.18c33.78,0,61.16-27.38,61.16-61.16V61.16c0-33.78-27.38-61.16-61.16-61.16h0Z"/></svg>