<?xml version="1.0" encoding="UTF-8"?><svg id="Layer_1" xmlns="http://www.w3.org/2000/svg" viewBox="0 0 943.17 737.58"><g id="_197-1978561_marketing-icon-icon"><path d="m258.13,481.49c10.99,43.88,22.15,86.33,32.07,129.07,3.85,16.59,9.75,30.71,23.02,42.29,10.97,9.57,12.77,23.34,8.28,37.13-4.61,14.17-15.06,22.37-29.5,25.18-37.89,7.37-75.84,14.41-113.71,21.84-11.8,2.32-18.71-2.21-21.38-13.57-19.57-82.98-39.01-165.99-58.83-248.91-.79-3.29-4.37-7.44-7.51-8.41C28.79,447.03-7.74,389.58,1.39,325.22c8.5-59.89,62.58-105.28,125.55-105.37,14.79-.02,29.68-1.1,44.35.2,41.9,3.72,80.25-6.39,118.87-22.53,99.01-41.39,199.09-80.25,298.86-119.8,6.83-2.71,8.9-5.89,8.83-13.14-.33-35.2,24.09-61.76,58.42-64.4,32.89-2.52,61.27,20.96,66.42,55.06.47,3.1.4,6.29.41,9.44.02,60.93-.12,121.87.35,182.8.03,3.63,4.2,9.24,7.68,10.5,24.62,8.9,49.81,16.27,74.23,25.67,5.29,2.04,11.41,10.22,11.61,15.78,1.13,30.52,1.17,61.13-.02,91.65-.22,5.68-6.58,14.01-12.04,16.11-25.15,9.67-51.03,17.44-76.49,26.33-2.32.81-5.09,4.68-5.1,7.15-.28,61.92-.21,123.84-.23,185.76-.01,36.08-27.38,64.12-62.57,64.18-35.34.06-63-27.74-62.67-63.81.07-7.66-1.98-11.2-9.26-14.09-108.37-42.96-216.6-86.26-324.87-129.47-1.41-.56-2.9-.91-5.62-1.75ZM597.28,108.05c-2.15.66-3.83,1.06-5.41,1.69-112.1,44.77-224.21,89.53-336.22,134.55-2.16.87-4.41,4.77-4.42,7.27-.24,62.51-.26,125.02.05,187.53.01,2.64,2.99,6.66,5.53,7.68,90.23,36.36,180.56,72.44,270.89,108.54,22.97,9.18,45.97,18.28,69.58,27.67V108.05Zm31.32,237.07c0,93.28,0,186.56,0,279.84,0,20.25,13.12,34.68,31.54,34.77,18.7.1,32.06-14.4,32.06-34.92.01-186.16,0-372.33,0-558.49,0-20.9-12.78-35.1-31.61-35.22-19.07-.12-31.99,14.15-31.99,35.36,0,92.88,0,185.77,0,278.65Zm-408.44.54c0-29.56.12-59.12-.27-88.67-.03-2.07-3.84-5.85-5.93-5.87-29.16-.39-58.32-.45-87.49-.22-50.65.41-91.37,37.53-95.4,86.68-4.08,49.71,30.47,94.86,81.24,100.54,33.49,3.75,67.67,1.43,101.54,1.36,2.11,0,6.01-4.1,6.04-6.34.41-29.16.27-58.32.27-87.49Zm-43.44,125.09c-13.8,0-27.61-.18-41.4.24-1.65.05-4.86,3.82-4.54,5.22,17.17,74.03,34.59,148,52.32,221.9.52,2.16,5,5.26,7.08,4.88,31.19-5.63,62.32-11.68,93.39-17.96,3.08-.62,7.39-2.82,8.13-5.21.73-2.37-1.93-6.19-3.82-8.88-7.07-10.07-18.01-18.94-21.09-30.04-15.09-54.44-28.04-109.48-42.11-164.21-.62-2.43-4.62-5.56-7.16-5.67-13.58-.56-27.2-.27-40.81-.26Zm546.78-182.27v113.74c20.48-6.83,40.42-13.39,60.24-20.27,1.29-.45,2.43-3.34,2.44-5.11.17-21.07.16-42.15.02-63.22-.01-1.67-.94-4.44-2.09-4.84-20.01-6.89-40.11-13.49-60.61-20.3Z"/><path d="m896.19,360.53c-13.98,0-27.96.15-41.93-.2-1.58-.04-4.38-2.79-4.45-4.37-1.15-26.09-1.07-26.09,24.95-26.09,21.07,0,42.14-.12,63.2.23,1.77.03,4.94,3.24,5,5.04.78,25.39.68,25.39-24.92,25.39-7.28,0-14.57,0-21.85,0Z"/><path d="m935.28,169.69c-1.1.9-2.1,1.94-3.29,2.66-23.64,14.21-47.26,28.43-71.04,42.39-1.27.75-3.86-.7-5.81-1.22-.28-.07-.43-.63-.64-.97q-13.56-21.62,8.17-34.75c17.38-10.48,34.72-21.01,52.31-31.12,1.62-.93,6.07.19,7.2,1.78,4.66,6.56,8.55,13.68,13.11,21.22Z"/><path d="m857.84,473.97c1.76.96,3.17,1.65,4.51,2.46,22.96,13.77,45.95,27.46,68.74,41.51,1.51.93,2.69,5.24,1.84,6.73-12.77,22.36-12.89,22.36-34.76,9.4-17.1-10.14-34.23-20.24-51-30.89-1.86-1.18-2.89-6.47-1.89-8.83,2.5-5.93,6.36-11.29,9.75-16.83.77-1.26,1.84-2.33,2.82-3.54Z"/><path d="m157.4,313.61c0-1.97,0-3.94,0-5.9,0-25.7,0-25.78,25.86-24.52,1.69.08,4.62,2.81,4.65,4.34.33,17.7.27,35.42.09,53.13-.01,1.42-1.62,4-2.56,4.04-8.45.32-16.92.32-25.37.01-.94-.03-2.52-2.55-2.56-3.94-.23-9.05-.12-18.1-.12-27.15Z"/><path d="m94.42,313.95c0-2.17,0-4.33,0-6.5,0-26,0-26.07,26.24-24.24,1.56.11,4.18,2.76,4.2,4.26.29,17.72.29,35.45,0,53.17-.02,1.44-2.77,2.85-4.27,4.25-.11.1-.38.01-.58.01q-25.59.56-25.59-30.96Z"/></g></svg>