{
  "accessors": [
    {
      "bufferView": 2,
      "componentType": 5126,
      "count": 4034,
      "max": [
        4.038825511932373,
        4.0263895988464355,
        1.0653568506240845
      ],
      "min": [
        -4.038825511932373,
        -4.0263895988464355,
        -1.3278077840805054
      ],
      "type": "VEC3"
    },
    {
      "bufferView": 2,
      "byteOffset": 48408,
      "componentType": 5126,
      "count": 4034,
      "max": [
        1.0,
        1.0,
        1.0
      ],
      "min": [
        -1.0,
        -1.0,
        -1.0
      ],
      "type": "VEC3"
    },
    {
      "bufferView": 1,
      "componentType": 5126,
      "count": 4034,
      "max": [
        0.9974139928817749,
        0.9947946071624756
      ],
      "min": [
        0.0025874397251755,
        0.0087363813072443
      ],
      "type": "VEC2"
    },
    {
      "bufferView": 1,
      "byteOffset": 32272,
      "componentType": 5126,
      "count": 4034,
      "max": [
        0.9974139928817749,
        0.9947946071624756
      ],
      "min": [
        0.0025874397251755,
        0.0087363813072443
      ],
      "type": "VEC2"
    },
    {
      "bufferView": 1,
      "byteOffset": 64544,
      "componentType": 5126,
      "count": 4034,
      "max": [
        0.9974139928817749,
        0.9947946071624756
      ],
      "min": [
        0.0025874397251755,
        0.0087363813072443
      ],
      "type": "VEC2"
    },
    {
      "bufferView": 0,
      "componentType": 5125,
      "count": 11646,
      "type": "SCALAR"
    },
    {
      "bufferView": 2,
      "byteOffset": 96816,
      "componentType": 5126,
      "count": 304,
      "max": [
        2.32342791557312,
        0.4362891614437103,
        0.011772682890295982
      ],
      "min": [
        -2.3234267234802246,
        -0.42671987414360046,
        -0.14876645803451538
      ],
      "type": "VEC3"
    },
    {
      "bufferView": 2,
      "byteOffset": 100464,
      "componentType": 5126,
      "count": 304,
      "max": [
        0.9965754151344299,
        0.999666690826416,
        0.9997844099998474
      ],
      "min": [
        -0.9965752959251404,
        -0.9981129765510559,
        -0.9997862577438354
      ],
      "type": "VEC3"
    },
    {
      "bufferView": 1,
      "byteOffset": 96816,
      "componentType": 5126,
      "count": 304,
      "max": [
        0.8489842414855957,
        0.7813374996185303
      ],
      "min": [
        0.40363964438438416,
        0.3924468159675598
      ],
      "type": "VEC2"
    },
    {
      "bufferView": 1,
      "byteOffset": 99248,
      "componentType": 5126,
      "count": 304,
      "max": [
        0.8489842414855957,
        0.7813374996185303
      ],
      "min": [
        0.40363964438438416,
        0.3924468159675598
      ],
      "type": "VEC2"
    },
    {
      "bufferView": 1,
      "byteOffset": 101680,
      "componentType": 5126,
      "count": 304,
      "max": [
        0.8489842414855957,
        0.7813374996185303
      ],
      "min": [
        0.40363964438438416,
        0.3924468159675598
      ],
      "type": "VEC2"
    },
    {
      "bufferView": 0,
      "byteOffset": 46584,
      "componentType": 5125,
      "count": 1140,
      "type": "SCALAR"
    },
    {
      "bufferView": 2,
      "byteOffset": 104112,
      "componentType": 5126,
      "count": 304,
      "max": [
        2.32342791557312,
        0.4362891614437103,
        0.011772682890295982
      ],
      "min": [
        -2.3234267234802246,
        -0.42671987414360046,
        -0.14876645803451538
      ],
      "type": "VEC3"
    },
    {
      "bufferView": 2,
      "byteOffset": 107760,
      "componentType": 5126,
      "count": 304,
      "max": [
        0.9965754151344299,
        0.999666690826416,
        0.9997844099998474
      ],
      "min": [
        -0.9965752959251404,
        -0.9981129765510559,
        -0.9997862577438354
      ],
      "type": "VEC3"
    },
    {
      "bufferView": 1,
      "byteOffset": 104112,
      "componentType": 5126,
      "count": 304,
      "max": [
        0.8489842414855957,
        0.7813374996185303
      ],
      "min": [
        0.40363964438438416,
        0.3924468159675598
      ],
      "type": "VEC2"
    },
    {
      "bufferView": 1,
      "byteOffset": 106544,
      "componentType": 5126,
      "count": 304,
      "max": [
        0.8489842414855957,
        0.7813374996185303
      ],
      "min": [
        0.40363964438438416,
        0.3924468159675598
      ],
      "type": "VEC2"
    },
    {
      "bufferView": 1,
      "byteOffset": 108976,
      "componentType": 5126,
      "count": 304,
      "max": [
        0.8489842414855957,
        0.7813374996185303
      ],
      "min": [
        0.40363964438438416,
        0.3924468159675598
      ],
      "type": "VEC2"
    },
    {
      "bufferView": 0,
      "byteOffset": 51144,
      "componentType": 5125,
      "count": 1140,
      "type": "SCALAR"
    },
    {
      "bufferView": 2,
      "byteOffset": 111408,
      "componentType": 5126,
      "count": 304,
      "max": [
        2.32342791557312,
        0.4362891614437103,
        0.011772682890295982
      ],
      "min": [
        -2.3234267234802246,
        -0.42671987414360046,
        -0.14876645803451538
      ],
      "type": "VEC3"
    },
    {
      "bufferView": 2,
      "byteOffset": 115056,
      "componentType": 5126,
      "count": 304,
      "max": [
        0.9965754151344299,
        0.999666690826416,
        0.9997844099998474
      ],
      "min": [
        -0.9965752959251404,
        -0.9981129765510559,
        -0.9997862577438354
      ],
      "type": "VEC3"
    },
    {
      "bufferView": 1,
      "byteOffset": 111408,
      "componentType": 5126,
      "count": 304,
      "max": [
        0.8489842414855957,
        0.7813374996185303
      ],
      "min": [
        0.40363964438438416,
        0.3924468159675598
      ],
      "type": "VEC2"
    },
    {
      "bufferView": 1,
      "byteOffset": 113840,
      "componentType": 5126,
      "count": 304,
      "max": [
        0.8489842414855957,
        0.7813374996185303
      ],
      "min": [
        0.40363964438438416,
        0.3924468159675598
      ],
      "type": "VEC2"
    },
    {
      "bufferView": 1,
      "byteOffset": 116272,
      "componentType": 5126,
      "count": 304,
      "max": [
        0.8489842414855957,
        0.7813374996185303
      ],
      "min": [
        0.40363964438438416,
        0.3924468159675598
      ],
      "type": "VEC2"
    },
    {
      "bufferView": 0,
      "byteOffset": 55704,
      "componentType": 5125,
      "count": 1140,
      "type": "SCALAR"
    },
    {
      "bufferView": 2,
      "byteOffset": 118704,
      "componentType": 5126,
      "count": 304,
      "max": [
        2.32342791557312,
        0.4362891614437103,
        0.011772682890295982
      ],
      "min": [
        -2.3234267234802246,
        -0.42671987414360046,
        -0.14876645803451538
      ],
      "type": "VEC3"
    },
    {
      "bufferView": 2,
      "byteOffset": 122352,
      "componentType": 5126,
      "count": 304,
      "max": [
        0.9965754151344299,
        0.999666690826416,
        0.9997844099998474
      ],
      "min": [
        -0.9965752959251404,
        -0.9981129765510559,
        -0.9997862577438354
      ],
      "type": "VEC3"
    },
    {
      "bufferView": 1,
      "byteOffset": 118704,
      "componentType": 5126,
      "count": 304,
      "max": [
        0.8489842414855957,
        0.7813374996185303
      ],
      "min": [
        0.40363964438438416,
        0.3924468159675598
      ],
      "type": "VEC2"
    },
    {
      "bufferView": 1,
      "byteOffset": 121136,
      "componentType": 5126,
      "count": 304,
      "max": [
        0.8489842414855957,
        0.7813374996185303
      ],
      "min": [
        0.40363964438438416,
        0.3924468159675598
      ],
      "type": "VEC2"
    },
    {
      "bufferView": 1,
      "byteOffset": 123568,
      "componentType": 5126,
      "count": 304,
      "max": [
        0.8489842414855957,
        0.7813374996185303
      ],
      "min": [
        0.40363964438438416,
        0.3924468159675598
      ],
      "type": "VEC2"
    },
    {
      "bufferView": 0,
      "byteOffset": 60264,
      "componentType": 5125,
      "count": 1140,
      "type": "SCALAR"
    },
    {
      "bufferView": 2,
      "byteOffset": 126000,
      "componentType": 5126,
      "count": 398,
      "max": [
        2.071079730987549,
        2.0947794914245605,
        0.02750706672668457
      ],
      "min": [
        -2.071079730987549,
        -2.0947794914245605,
        -1.9037039279937744
      ],
      "type": "VEC3"
    },
    {
      "bufferView": 2,
      "byteOffset": 130776,
      "componentType": 5126,
      "count": 398,
      "max": [
        0.895098865032196,
        0.9995360970497131,
        1.0
      ],
      "min": [
        -0.895098865032196,
        -0.9995360970497131,
        -1.0
      ],
      "type": "VEC3"
    },
    {
      "bufferView": 1,
      "byteOffset": 126000,
      "componentType": 5126,
      "count": 398,
      "max": [
        0.9004727005958557,
        0.7730046510696411
      ],
      "min": [
        0.003720187349244952,
        0.008786054328083992
      ],
      "type": "VEC2"
    },
    {
      "bufferView": 1,
      "byteOffset": 129184,
      "componentType": 5126,
      "count": 398,
      "max": [
        0.9004727005958557,
        0.7730046510696411
      ],
      "min": [
        0.003720187349244952,
        0.008786054328083992
      ],
      "type": "VEC2"
    },
    {
      "bufferView": 1,
      "byteOffset": 132368,
      "componentType": 5126,
      "count": 398,
      "max": [
        0.9004727005958557,
        0.7730046510696411
      ],
      "min": [
        0.003720187349244952,
        0.008786054328083992
      ],
      "type": "VEC2"
    },
    {
      "bufferView": 0,
      "byteOffset": 64824,
      "componentType": 5125,
      "count": 1728,
      "type": "SCALAR"
    },
    {
      "bufferView": 2,
      "byteOffset": 135552,
      "componentType": 5126,
      "count": 371,
      "max": [
        0.9744281768798828,
        0.9842270612716675,
        0.2054985910654068
      ],
      "min": [
        -0.9744281768798828,
        -0.9842270612716675,
        -1.0731487274169922
      ],
      "type": "VEC3"
    },
    {
      "bufferView": 2,
      "byteOffset": 140004,
      "componentType": 5126,
      "count": 371,
      "max": [
        1.0,
        0.9999904632568359,
        0.0
      ],
      "min": [
        -1.0,
        -0.9999903440475464,
        -1.0
      ],
      "type": "VEC3"
    },
    {
      "bufferView": 1,
      "byteOffset": 135552,
      "componentType": 5126,
      "count": 371,
      "max": [
        0.917937159538269,
        0.6871211528778076
      ],
      "min": [
        0.4414082169532776,
        0.009145760908722878
      ],
      "type": "VEC2"
    },
    {
      "bufferView": 1,
      "byteOffset": 138520,
      "componentType": 5126,
      "count": 371,
      "max": [
        0.917937159538269,
        0.6871211528778076
      ],
      "min": [
        0.4414082169532776,
        0.009145760908722878
      ],
      "type": "VEC2"
    },
    {
      "bufferView": 1,
      "byteOffset": 141488,
      "componentType": 5126,
      "count": 371,
      "max": [
        0.917937159538269,
        0.6871211528778076
      ],
      "min": [
        0.4414082169532776,
        0.009145760908722878
      ],
      "type": "VEC2"
    },
    {
      "bufferView": 0,
      "byteOffset": 71736,
      "componentType": 5125,
      "count": 1536,
      "type": "SCALAR"
    },
    {
      "bufferView": 2,
      "byteOffset": 144456,
      "componentType": 5126,
      "count": 503,
      "max": [
        0.255251944065094,
        -0.7142549753189087,
        0.2540566623210907
      ],
      "min": [
        -0.25524815917015076,
        -1.0972588062286377,
        -0.25644341111183167
      ],
      "type": "VEC3"
    },
    {
      "bufferView": 2,
      "byteOffset": 150492,
      "componentType": 5126,
      "count": 503,
      "max": [
        0.9999995231628418,
        1.0255038205286837e-06,
        0.9999995827674866
      ],
      "min": [
        -0.9999995231628418,
        -1.0,
        -0.9999995827674866
      ],
      "type": "VEC3"
    },
    {
      "bufferView": 1,
      "byteOffset": 144456,
      "componentType": 5126,
      "count": 503,
      "max": [
        0.9971935749053955,
        0.8712942600250244
      ],
      "min": [
        0.017467090860009193,
        0.008740893565118313
      ],
      "type": "VEC2"
    },
    {
      "bufferView": 1,
      "byteOffset": 148480,
      "componentType": 5126,
      "count": 503,
      "max": [
        0.9971935749053955,
        0.8712942600250244
      ],
      "min": [
        0.017467090860009193,
        0.008740893565118313
      ],
      "type": "VEC2"
    },
    {
      "bufferView": 1,
      "byteOffset": 152504,
      "componentType": 5126,
      "count": 503,
      "max": [
        0.9971935749053955,
        0.8712942600250244
      ],
      "min": [
        0.017467090860009193,
        0.008740893565118313
      ],
      "type": "VEC2"
    },
    {
      "bufferView": 0,
      "byteOffset": 77880,
      "componentType": 5125,
      "count": 1536,
      "type": "SCALAR"
    }
  ],
  "asset": {
    "extras": {
      "author": "yanix (https://sketchfab.com/yanix)",
      "license": "CC-BY-4.0 (http://creativecommons.org/licenses/by/4.0/)",
      "source": "https://sketchfab.com/3d-models/quadrocopter-2-6885c5f1a68148e1b2b3a4f69b8b3d70",
      "title": "Quadrocopter 2"
    },
    "generator": "Sketchfab-12.63.0",
    "version": "2.0"
  },
  "bufferViews": [
    {
      "buffer": 0,
      "byteLength": 84024,
      "name": "floatBufferViews",
      "target": 34963
    },
    {
      "buffer": 0,
      "byteLength": 156528,
      "byteOffset": 84024,
      "byteStride": 8,
      "name": "floatBufferViews",
      "target": 34962
    },
    {
      "buffer": 0,
      "byteLength": 156528,
      "byteOffset": 240552,
      "byteStride": 12,
      "name": "floatBufferViews",
      "target": 34962
    }
  ],
  "buffers": [
    {
      "byteLength": 397080,
      "uri": "scene.bin"
    }
  ],
  "images": [
    {
      "uri": "textures/Material_baseColor.png"
    },
    {
      "uri": "textures/Material_metallicRoughness.png"
    }
  ],
  "materials": [
    {
      "doubleSided": true,
      "name": "Material",
      "pbrMetallicRoughness": {
        "baseColorTexture": {
          "index": 0
        },
        "metallicRoughnessTexture": {
          "index": 1
        }
      }
    }
  ],
  "meshes": [
    {
      "name": "quadrocopter_body_object_Material_0",
      "primitives": [
        {
          "attributes": {
            "NORMAL": 1,
            "POSITION": 0,
            "TEXCOORD_0": 2,
            "TEXCOORD_1": 3,
            "TEXCOORD_2": 4
          },
          "indices": 5,
          "material": 0,
          "mode": 4
        }
      ]
    },
    {
      "name": "quadrocopter_propeller_1_object_Material_0",
      "primitives": [
        {
          "attributes": {
            "NORMAL": 7,
            "POSITION": 6,
            "TEXCOORD_0": 8,
            "TEXCOORD_1": 9,
            "TEXCOORD_2": 10
          },
          "indices": 11,
          "material": 0,
          "mode": 4
        }
      ]
    },
    {
      "name": "quadrocopter_propeller_4_object_Material_0",
      "primitives": [
        {
          "attributes": {
            "NORMAL": 13,
            "POSITION": 12,
            "TEXCOORD_0": 14,
            "TEXCOORD_1": 15,
            "TEXCOORD_2": 16
          },
          "indices": 17,
          "material": 0,
          "mode": 4
        }
      ]
    },
    {
      "name": "quadrocopter_propeller_3_object_Material_0",
      "primitives": [
        {
          "attributes": {
            "NORMAL": 19,
            "POSITION": 18,
            "TEXCOORD_0": 20,
            "TEXCOORD_1": 21,
            "TEXCOORD_2": 22
          },
          "indices": 23,
          "material": 0,
          "mode": 4
        }
      ]
    },
    {
      "name": "quadrocopter_propeller_2_object_Material_0",
      "primitives": [
        {
          "attributes": {
            "NORMAL": 25,
            "POSITION": 24,
            "TEXCOORD_0": 26,
            "TEXCOORD_1": 27,
            "TEXCOORD_2": 28
          },
          "indices": 29,
          "material": 0,
          "mode": 4
        }
      ]
    },
    {
      "name": "quadrocopter_bumper_object_Material_0",
      "primitives": [
        {
          "attributes": {
            "NORMAL": 31,
            "POSITION": 30,
            "TEXCOORD_0": 32,
            "TEXCOORD_1": 33,
            "TEXCOORD_2": 34
          },
          "indices": 35,
          "material": 0,
          "mode": 4
        }
      ]
    },
    {
      "name": "quadrocopter_cam2_object_Material_0",
      "primitives": [
        {
          "attributes": {
            "NORMAL": 37,
            "POSITION": 36,
            "TEXCOORD_0": 38,
            "TEXCOORD_1": 39,
            "TEXCOORD_2": 40
          },
          "indices": 41,
          "material": 0,
          "mode": 4
        }
      ]
    },
    {
      "name": "quadrocopter_cam3_object_Material_0",
      "primitives": [
        {
          "attributes": {
            "NORMAL": 43,
            "POSITION": 42,
            "TEXCOORD_0": 44,
            "TEXCOORD_1": 45,
            "TEXCOORD_2": 46
          },
          "indices": 47,
          "material": 0,
          "mode": 4
        }
      ]
    }
  ],
  "nodes": [
    {
      "children": [
        1
      ],
      "matrix": [
        1.0,
        0.0,
        0.0,
        0.0,
        0.0,
        2.220446049250313e-16,
        -1.0,
        0.0,
        0.0,
        1.0,
        2.220446049250313e-16,
        0.0,
        0.0,
        0.0,
        0.0,
        1.0
      ],
      "name": "Sketchfab_model"
    },
    {
      "children": [
        2
      ],
      "matrix": [
        1.0,
        0.0,
        0.0,
        0.0,
        0.0,
        0.0,
        1.0,
        0.0,
        0.0,
        -1.0,
        0.0,
        0.0,
        0.0,
        0.0,
        0.0,
        1.0
      ],
      "name": "quadrocopter.fbx"
    },
    {
      "children": [
        3
      ],
      "name": "RootNode"
    },
    {
      "children": [
        4,
        5,
        7,
        9,
        11,
        13,
        15
      ],
      "matrix": [
        100.0,
        0.0,
        0.0,
        0.0,
        0.0,
        -1.629206793918314e-05,
        -99.99999999999868,
        0.0,
        0.0,
        99.99999999999868,
        -1.629206793918314e-05,
        0.0,
        0.0,
        117.77763366699219,
        0.0,
        1.0
      ],
      "name": "quadrocopter_body_object"
    },
    {
      "mesh": 0,
      "name": "quadrocopter_body_object_Material_0"
    },
    {
      "children": [
        6
      ],
      "matrix": [
        1.0,
        0.0,
        0.0,
        0.0,
        0.0,
        1.0,
        -2.646977960169688e-23,
        0.0,
        0.0,
        2.646977960169688e-23,
        1.0,
        0.0,
        3.372143507003784,
        -3.358872175216675,
        0.40209269523620605,
        1.0
      ],
      "name": "quadrocopter_propeller_1_object"
    },
    {
      "mesh": 1,
      "name": "quadrocopter_propeller_1_object_Material_0"
    },
    {
      "children": [
        8
      ],
      "matrix": [
        0.5498678607508212,
        -0.8352516601080872,
        -4.807131394335418e-10,
        0.0,
        0.8340736228848268,
        0.5490923282816813,
        -0.05309243477165136,
        0.0,
        0.04434554190295759,
        0.029193821388902842,
        0.9985895425532755,
        0.0,
        3.3778934478759766,
        3.3481996059417725,
        0.41731226444244385,
        1.0
      ],
      "name": "quadrocopter_propeller_4_object"
    },
    {
      "mesh": 2,
      "name": "quadrocopter_propeller_4_object_Material_0"
    },
    {
      "children": [
        10
      ],
      "matrix": [
        -0.5801595549687226,
        -0.8408377693340676,
        -7.1914609121065445e-09,
        0.0,
        0.8396517562223068,
        -0.5793412315605143,
        -0.054237308995618426,
        0.0,
        0.04464211095970514,
        -0.030802082765544567,
        1.0201233146961024,
        0.0,
        -3.377833604812622,
        3.350968599319458,
        0.41731226444244385,
        1.0
      ],
      "name": "quadrocopter_propeller_3_object"
    },
    {
      "mesh": 3,
      "name": "quadrocopter_propeller_3_object_Material_0"
    },
    {
      "children": [
        12
      ],
      "matrix": [
        0.15098204789300596,
        -1.0103453294662332,
        -3.1285621671814223e-09,
        0.0,
        1.008920223949449,
        0.15076908587553753,
        -0.054237297594853275,
        0.0,
        0.053641671412135244,
        0.008015998069657396,
        1.0201233153022515,
        0.0,
        -3.3742830753326416,
        -3.3737599849700928,
        0.41731226444244385,
        1.0
      ],
      "name": "quadrocopter_propeller_2_object"
    },
    {
      "mesh": 4,
      "name": "quadrocopter_propeller_2_object_Material_0"
    },
    {
      "children": [
        14
      ],
      "matrix": [
        1.0,
        0.0,
        0.0,
        0.0,
        0.0,
        1.0,
        -2.646977960169688e-23,
        0.0,
        0.0,
        2.646977960169688e-23,
        1.0,
        0.0,
        0.001746058464050293,
        -0.06223189830780029,
        -0.4706202745437622,
        1.0
      ],
      "name": "quadrocopter_bumper_object"
    },
    {
      "mesh": 5,
      "name": "quadrocopter_bumper_object_Material_0"
    },
    {
      "children": [
        16,
        17
      ],
      "matrix": [
        1.0,
        0.0,
        0.0,
        0.0,
        0.0,
        1.0,
        -2.646977960169688e-23,
        0.0,
        0.0,
        2.646977960169688e-23,
        1.0,
        0.0,
        7.83426727934966e-08,
        8.469477563721739e-09,
        -1.0510435104370117,
        1.0
      ],
      "name": "quadrocopter_cam2_object"
    },
    {
      "mesh": 6,
      "name": "quadrocopter_cam2_object_Material_0"
    },
    {
      "children": [
        18
      ],
      "matrix": [
        1.0,
        0.0,
        0.0,
        0.0,
        0.0,
        1.0,
        -2.646977960169688e-23,
        0.0,
        0.0,
        2.646977960169688e-23,
        1.0,
        0.0,
        -7.105427357601002e-15,
        -8.469478451900159e-09,
        -0.09620410203933716,
        1.0
      ],
      "name": "quadrocopter_cam3_object"
    },
    {
      "mesh": 7,
      "name": "quadrocopter_cam3_object_Material_0"
    }
  ],
  "samplers": [
    {
      "magFilter": 9729,
      "minFilter": 9987,
      "wrapS": 10497,
      "wrapT": 10497
    }
  ],
  "scene": 0,
  "scenes": [
    {
      "name": "Sketchfab_Scene",
      "nodes": [
        0
      ]
    }
  ],
  "textures": [
    {
      "sampler": 0,
      "source": 0
    },
    {
      "sampler": 0,
      "source": 1
    }
  ]
}
