<?xml version="1.0" encoding="UTF-8"?><svg id="Layer_1" xmlns="http://www.w3.org/2000/svg" viewBox="0 0 717.05 688.24"><defs><style>.cls-1{stroke-width:19.23px;}.cls-1,.cls-2,.cls-3,.cls-4,.cls-5,.cls-6{fill:none;stroke:#231f20;stroke-miterlimit:10;}.cls-2{stroke-width:13.73px;}.cls-3{stroke-width:35.22px;}.cls-4{stroke-width:35px;}.cls-5{stroke-width:34px;}.cls-6{stroke-width:35.54px;}</style></defs><path class="cls-1" d="m126.59,256.71c-64.6,0-116.98,52.37-116.98,116.98l22.93,69.57,94.05,212.63,94.05-212.63,22.93-69.57c0-64.6-52.37-116.98-116.98-116.98Zm0,74.34c23.56,0,42.64,19.1,42.64,42.64s-19.08,42.64-42.64,42.64-42.64-19.1-42.64-42.64,19.1-42.64,42.64-42.64Z"/><path class="cls-2" d="m419.13,6.86c-46.1,0-83.48,37.37-83.48,83.48l16.36,49.64,67.12,151.74,67.12-151.74,16.36-49.64c0-46.1-37.37-83.48-83.48-83.48Zm0,53.05c16.81,0,30.43,13.63,30.43,30.43s-13.62,30.43-30.43,30.43-30.43-13.63-30.43-30.43,13.63-30.43,30.43-30.43Z"/><line class="cls-4" x1="126.59" y1="670.62" x2="605.58" y2="670.62"/><path class="cls-3" d="m599.87,670.44c37.99,3.09,70.08-33.98,71.2-78.34,1.17-46.19-31.59-86.69-71.2-83.56l-288.25-.17"/><path class="cls-5" d="m311.62,508.38c-30.41,1.43-55.5-20.41-58.39-45.8-3.32-29.13,22.97-59.4,58.39-58.39,116.79,0,233.58-.02,350.36-.02"/><path class="cls-6" d="m654.27,404.16c20.34-1.45,37.58-13.97,43.09-31.02,7.3-22.56-6.7-50.64-34.23-59.78h-247.07"/></svg>