<?xml version="1.0" encoding="UTF-8"?><svg id="Layer_1" xmlns="http://www.w3.org/2000/svg" viewBox="0 0 1049.77 1050.67"><path d="m553.76,1050.67c.07-1.74.19-3.49.19-5.23.01-44.92,0-89.83,0-134.75,0-1.74,0-3.48,0-5.61h87.17c.11,1.17.3,2.3.3,3.42.01,46.67.01,93.33,0,140,0,.72-.12,1.45-.18,2.17h-87.48Z"/><path d="m277.32,0c-.07,24.9-.13,49.8-.2,74.7-.01,4.34,0,8.68,0,13.17h-29.3v-4.87c0-25.92,0-51.85-.01-77.77,0-1.74-.15-3.48-.23-5.22,9.91,0,19.83,0,29.74,0Z"/><path d="m0,247.78c27.51.06,55.03.12,82.54.18,1.72,0,3.44,0,5.28,0v29.32h-4.85c-25.92,0-51.83,0-77.75.01-1.74,0-3.48.16-5.21.25C0,267.63,0,257.71,0,247.78Z"/><path d="m262.65,116.66c80.48.27,145.75,65.71,145.66,146.05-.09,80.43-65.48,145.84-145.83,145.88-80.45.04-146.34-66.03-145.87-146.26.48-80.72,65.86-145.93,146.03-145.67Z"/><path d="m918.54,729.7c0,9.44.08,18.46-.09,27.49-.02,1.22-1.06,2.64-2.01,3.59-37.47,37.58-74.98,75.13-112.56,112.61-1.1,1.09-2.95,2.03-4.45,2.03-56.84.1-113.68.07-170.52.06-.42,0-.83-.15-1.81-.34,0-9.36-.07-18.78.1-28.19.02-1.04,1.32-2.17,2.22-3.07,37.29-37.36,74.58-74.71,111.97-111.97,1.28-1.27,3.45-2.32,5.21-2.32,56.4-.12,112.81-.1,169.21-.09.71,0,1.42.1,2.73.21Z"/><path d="m481.07,731.27c-1.37.84-2.98,1.44-4.09,2.55-36.43,36.38-72.79,72.82-109.24,109.18-2.23,2.22-3.31,4.39-3.21,7.61.23,8.13.08,16.26.08,24.64h-174.89c0-9.49-.07-18.9.1-28.32.02-1.04,1.33-2.16,2.23-3.06,37.3-37.36,74.61-74.72,112-111.99,1.27-1.27,3.46-2.3,5.22-2.3,56.13-.12,112.25-.1,168.38-.09.7,0,1.4.08,2.1.12.44.55.89,1.11,1.33,1.66Z"/><path d="m699.97,731.44c-1.42.75-3.12,1.22-4.21,2.3-36.44,36.37-72.79,72.82-109.25,109.17-2.36,2.36-3.39,4.69-3.3,8.01.21,7.99.07,15.99.07,24.29h-174.95c0-5.69.53-11.51-.13-17.19-.98-8.42,2.13-14.18,8.15-20.1,35.35-34.77,70.26-69.98,105.25-105.12,2.32-2.33,4.61-3.39,7.97-3.38,54.81.11,109.62.07,164.44.07h4.58c.46.65.92,1.3,1.37,1.95Z"/><path d="m1049.76,598.35c0,9.46.06,18.49-.08,27.52-.02,1.11-.88,2.42-1.73,3.27-32.74,32.85-65.53,65.65-98.31,98.45-.38.38-.88.63-1.84,1.3v-28.27h-174.73c1.39-1.65,2.09-2.63,2.93-3.48,32.05-32.1,64.09-64.2,96.25-96.2,1.46-1.45,3.94-2.66,5.94-2.67,55.98-.14,111.96-.11,167.94-.11,1,0,2,.1,3.62.18Z"/><path d="m612.34,600c-1.39.81-3.02,1.38-4.12,2.48-31.79,31.72-63.5,63.52-95.33,95.19-1.45,1.44-3.93,2.62-5.93,2.63-55.82.14-111.64.11-167.45.11h-3.75c1.25-1.44,1.91-2.31,2.67-3.07,32.15-32.19,64.28-64.38,96.52-96.48,1.38-1.37,3.67-2.58,5.54-2.59,56.11-.14,112.22-.11,168.33-.1.7,0,1.41.08,2.11.12.47.57.94,1.14,1.41,1.71Z"/><path d="m554.42,700.22c1.42-1.51,2.19-2.38,3.01-3.2,31.94-31.98,63.87-63.97,95.92-95.83,1.63-1.62,4.44-2.89,6.71-2.9,55.23-.16,110.47-.12,165.7-.12,1.28,0,2.57,0,4.79,0-1.26,1.53-1.94,2.51-2.77,3.34-32.14,32.19-64.28,64.39-96.51,96.49-1.27,1.27-3.44,2.31-5.2,2.31-56.26.12-112.51.1-168.77.09-.68,0-1.36-.08-2.89-.18Z"/><path d="m82.61,461.54c-6.16-6.16-12.73-12.74-18.87-18.89,21.84-21.88,43.8-43.88,65.3-65.42,6,6.04,12.63,12.73,18.85,19-21.29,21.3-43.25,43.27-65.28,65.31Z"/><path d="m63.62,83.14c6.42-6.43,13.08-13.1,19.42-19.45,21.78,21.78,43.76,43.76,65.11,65.11-6.4,6.35-13.11,13.01-19.55,19.41-21.2-21.23-43.1-43.16-64.97-65.07Z"/><path d="m248.18,437.43h28.64v87.56h-28.64v-87.56Z"/><path d="m524.77,248.24v28.74h-87.67v-28.74h87.67Z"/><path d="m376.6,396.64c6.61-6.6,13.28-13.27,19.75-19.74,18.7,18.73,37.95,38.02,56.91,57.02-6.43,6.41-13.2,13.15-19.74,19.66-18.84-18.85-38.1-38.11-56.93-56.94Z"/><path d="m433.89,71.55c6.42,6.44,13.08,13.11,19.45,19.49-19.1,19.13-38.42,38.47-57.1,57.17-6.41-6.39-13.1-13.07-19.53-19.48,18.68-18.68,37.94-37.94,57.18-57.18Z"/></svg>