<?xml version="1.0" encoding="UTF-8"?><svg id="Layer_1" xmlns="http://www.w3.org/2000/svg" viewBox="0 0 582.13 892.3"><defs><style>.cls-1{fill:#231f20;}</style></defs><path class="cls-1" d="m263.69,892.3c-7.44-2.15-7.51-2.15-7.3-10.35,2.02-80.68,4.09-161.35,6.09-242.03,1.67-67.48,3.34-134.97,4.83-202.46.37-16.66.06-33.34.06-50.76,16.02,3.65,30.82,3.85,45.92.25.14,1.01.34,1.83.36,2.65,2.21,94.48,4.35,188.96,6.63,283.44,1.67,69.31,3.53,138.61,5.27,207.91.23,9.2.13,9.2-8.17,11.35h-53.68Z"/><path class="cls-1" d="m582.13,501.77c-2.05,3.58-5.45,5.16-9.18,4.46-10.96-2.06-22.15-3.61-32.68-7.11-35.32-11.74-68.41-28.54-101-46.34-37.44-20.44-73.11-43.63-107.24-69.2-2.04-1.53-3.95-3.23-5.45-4.46,4.71-6.78,9.41-13.08,13.57-19.72,2.05-3.28,3.57-7.06,4.5-10.82.8-3.22,2.23-3.62,4.8-2.59,9.68,3.9,19.54,7.43,28.98,11.84,63.12,29.52,122.51,65.09,176.41,109.47,4.21,3.46,8.5,6.99,11.96,11.15,5.46,6.56,10.26,13.69,15.33,20.58v2.73Z"/><path class="cls-1" d="m255.56,379.25c-6.49,4.93-13.04,10.28-19.96,15.1-53.04,36.94-108.09,70.39-168.01,95.15-17.62,7.28-35.52,13.93-54.63,16.34-4.19.53-9.01,1.49-11.76-2.56-2.98-4.4.23-8.51,2.64-12.06,8.12-11.92,19.04-21.15,30.15-30.07,40.07-32.17,83.66-58.95,129.01-82.86,19.66-10.37,39.98-19.5,60-29.18.68-.33,1.37-.66,2.1-.87,3.18-.93,6.69-3.05,9.45-2.32,1.94.51,2.81,4.93,4.22,7.58,2.42,4.54,4.61,9.23,7.4,13.53,2.69,4.14,6.01,7.87,9.39,12.23Z"/><path class="cls-1" d="m311.18,281.78c-1.95-.32-3.57-.5-5.14-.85-10.22-2.28-20.5-2.27-30.63.06-3.73.86-4.76-.53-5.2-3.43-1-6.59-2.07-13.18-2.72-19.81-5.45-54.76-5.89-109.56-1.23-164.4,2.12-24.93,4.76-49.79,12.11-73.84,1.66-5.45,4.17-10.72,6.93-15.72,2.53-4.58,6.12-5.09,9.51-1.14,2.98,3.46,5.96,7.63,6.97,11.95,4.38,18.69,9.32,37.39,11.71,56.38,6.4,50.85,5.08,102,3.19,153.07-.66,17.84-3.1,35.61-4.75,53.4-.12,1.31-.44,2.6-.74,4.32Z"/><path class="cls-1" d="m318.56,334.36c-.04,15.5-12.34,28.03-27.53,28.05-14.83.02-27.48-12.96-27.47-28.18.01-15.26,11.93-27.29,26.99-27.23,15.71.06,28.05,12.11,28.01,27.37Z"/></svg>